<?xml version="1.0" encoding="UTF-8"?>
<svg xmlns="http://www.w3.org/2000/svg" viewBox="0 0 100 100" width="100" height="100">
  <!-- Outer circle segments -->
  <g transform="translate(50,50)">
    <!-- Green segments -->
    <path d="M 0,-35 A 35,35 0 0,1 24.75,-24.75 L 18,-18 A 25,25 0 0,0 0,-25 Z" fill="#8BC34A"/>
    <path d="M 24.75,-24.75 A 35,35 0 0,1 35,0 L 25,0 A 25,25 0 0,0 18,-18 Z" fill="#8BC34A"/>
    <path d="M 35,0 A 35,35 0 0,1 24.75,24.75 L 18,18 A 25,25 0 0,0 25,0 Z" fill="#8BC34A"/>
    <path d="M 0,35 A 35,35 0 0,1 -24.75,24.75 L -18,18 A 25,25 0 0,0 0,25 Z" fill="#8BC34A"/>
    <path d="M -24.75,24.75 A 35,35 0 0,1 -35,0 L -25,0 A 25,25 0 0,0 -18,18 Z" fill="#8BC34A"/>
    
    <!-- Dark segments -->
    <path d="M -35,0 A 35,35 0 0,1 -24.75,-24.75 L -18,-18 A 25,25 0 0,0 -25,0 Z" fill="#4A4A4A"/>
    <path d="M -24.75,-24.75 A 35,35 0 0,1 0,-35 L 0,-25 A 25,25 0 0,0 -18,-18 Z" fill="#4A4A4A"/>
    <path d="M 24.75,24.75 A 35,35 0 0,1 0,35 L 0,25 A 25,25 0 0,0 18,18 Z" fill="#4A4A4A"/>
    
    <!-- Center circle -->
    <circle cx="0" cy="0" r="12" fill="#4A4A4A"/>
    
    <!-- Indicator/pointer -->
    <g transform="rotate(45)">
      <circle cx="20" cy="0" r="8" fill="#4A4A4A"/>
      <circle cx="20" cy="0" r="5" fill="#FFFFFF"/>
    </g>
  </g>
</svg>